Coordinates
version=1
nRows=24
nColumns=24
inDegrees=yes

Units are S.I. units (second, meters, Newtons, ...)
Angles are in degrees.

endheader
time	pelvis_tilt	pelvis_list	pelvis_rotation	pelvis_tx	pelvis_ty	pelvis_tz	hip_flexion_r	hip_adduction_r	hip_rotation_r	knee_angle_r	ankle_angle_r	subtalar_angle_r	mtp_angle_r	hip_flexion_l	hip_adduction_l	hip_rotation_l	knee_angle_l	ankle_angle_l	subtalar_angle_l	mtp_angle_l	lumbar_extension	lumbar_bending	lumbar_rotation
      0.68383333	     -2.62544759	     -3.89942661	      4.03807186	     -0.46247142	      0.89711042	      0.34115662	     18.01094061	      9.84587600	     -1.21059856	    -27.69137080	     13.47591748	     -3.22478061	      1.62872388	     18.91715156	     -7.69288726	     -4.32020391	    -77.47581441	      1.21007145	     -7.72337095	     -1.16037029	     -6.18147913	      5.73781810	     -0.25315986
      0.68800000	     -2.72733630	     -3.77174283	      3.99393769	     -0.45729493	      0.89822169	      0.34130707	     17.46111037	      9.74833203	     -1.09251678	    -27.15304683	     13.55577674	     -3.14372224	      1.63104957	     19.79334137	     -7.43587550	     -4.29182091	    -77.50181248	      1.42775222	     -7.70871980	     -1.16070792	     -6.08991228	      5.58516183	     -0.14451600
      0.69216667	     -2.88263771	     -3.66573809	      3.94433841	     -0.45217953	      0.89919060	      0.34147432	     16.98818673	      9.67048908	     -0.97438752	    -26.63482422	     13.58399990	     -3.06983959	      1.63380484	     20.73318894	     -7.19071242	     -4.24199599	    -77.48577132	      1.70054708	     -7.59797877	     -1.15645112	     -5.96623789	      5.46617722	      0.08532085
      0.69633333	     -2.98629956	     -3.53455512	      3.87188257	     -0.44700192	      0.90026986	      0.34165079	     16.43653390	      9.57184810	     -0.83218361	    -26.08433209	     13.61481727	     -2.99348570	      1.63751433	     21.56729346	     -6.92546636	     -4.23000553	    -77.35042892	      1.94831204	     -7.48249429	     -1.14323843	     -5.88992926	      5.31562440	      0.28959704
      0.70050000	     -3.07334022	     -3.39938592	      3.78977019	     -0.44179848	      0.90136945	      0.34182993	     15.85708334	      9.46891810	     -0.68624788	    -25.51550082	     13.63650561	     -2.90571173	      1.64221306	     22.35544678	     -6.65670311	     -4.22976973	    -77.12870087	      2.19016191	     -7.33902854	     -1.12069440	     -5.83125386	      5.15923147	      0.48374060
      0.70466667	     -3.14168484	     -3.26960834	      3.69559305	     -0.43657381	      0.90247632	      0.34203774	     15.24652398	      9.37656971	     -0.52554161	    -24.92394448	     13.66958643	     -2.83176632	      1.65049583	     23.09847238	     -6.40373446	     -4.24496990	    -76.82971978	      2.42634660	     -7.16182462	     -1.07993939	     -5.79511498	      4.99893418	      0.71740165
      0.70883333	     -3.19654481	     -3.11819175	      3.58763149	     -0.43134597	      0.90360652	      0.34222431	     14.62124691	      9.25355440	     -0.37167827	    -24.33189744	     13.65064661	     -2.72641178	      1.65622677	     23.79237963	     -6.11982706	     -4.26984306	    -76.43688558	      2.65928365	     -6.99211453	     -1.04122624	     -5.77517553	      4.83470889	      0.88727526
      0.71300000	     -3.21972579	     -2.98823871	      3.47326655	     -0.42607817	      0.90474743	      0.34245796	     13.94382817	      9.16276049	     -0.19550880	    -23.70311973	     13.66958451	     -2.65253711	      1.66932610	     24.43061053	     -5.87827388	     -4.30560095	    -75.97776161	      2.89627799	     -6.77209046	     -0.97002873	     -5.78912432	      4.67875539	      1.15129465
      0.71716667	     -3.24883346	     -2.82963885	      3.34368930	     -0.42082133	      0.90587173	      0.34266422	     13.28205637	      9.02941910	     -0.03704160	    -23.09142490	     13.62336256	     -2.53250529	      1.67704538	     25.04207547	     -5.59511146	     -4.35337909	    -75.43025700	      3.11545658	     -6.57873269	     -0.91722068	     -5.79746876	      4.50003961	      1.31472115
      0.72133333	     -3.22907066	     -2.69796729	      3.21254090	     -0.41552479	      0.90702518	      0.34291295	     12.54497548	      8.93441100	      0.14619189	    -22.43261052	     13.62737775	     -2.45511306	      1.69421670	     25.57959613	     -5.36352728	     -4.40949778	    -74.82281761	      3.34776581	     -6.34147834	     -0.82469680	     -5.85690739	      4.34864259	      1.58704907
      0.72550000	     -3.21144922	     -2.54779183	      3.06821730	     -0.41023485	      0.90814986	      0.34316107	     11.81783157	      8.81267515	      0.32306270	    -21.78691425	     13.59106952	     -2.35822760	      1.71049904	     26.08984076	     -5.11024793	     -4.47781357	    -74.13710308	      3.56312019	     -6.12288812	     -0.73464474	     -5.91677968	      4.17081107	      1.80013372
      0.72966667	     -3.17563019	     -2.40124014	      2.91889185	     -0.40493278	      0.90926197	      0.34341103	     11.06646869	      8.69161835	      0.49935329	    -21.12890325	     13.54843426	     -2.25477759	      1.72886365	     26.55665062	     -4.86713026	     -4.55245296	    -73.38693281	      3.77367390	     -5.90432471	     -0.63767256	     -5.99649490	      4.00218747	      2.02274906
      0.73383333	     -3.13860391	     -2.24145831	      2.75502691	     -0.39964466	      0.91033806	      0.34366255	     10.32443720	      8.55084717	      0.67488164	    -20.48856901	     13.46962487	     -2.12757110	      1.74237175	     26.99417566	     -4.61059114	     -4.63990800	    -72.56281661	      3.97079722	     -5.69446882	     -0.56325534	     -6.07950291	      3.81477954	      2.20472524
      0.73800000	     -3.05709398	     -2.11267062	      2.59929762	     -0.39432234	      0.91141424	      0.34393691	      9.51110648	      8.44761076	      0.86133713	    -19.79626370	     13.44444200	     -2.04514618	      1.76724051	     27.36829527	     -4.40200195	     -4.72139477	    -71.69608753	      4.17654069	     -5.47885701	     -0.45331210	     -6.20405308	      3.66316279	      2.46983791
      0.74216667	     -3.00789814	     -1.94884158	      2.42064094	     -0.38903829	      0.91240701	      0.34420685	      8.76314644	      8.29421669	      1.03136664	    -19.16045662	     13.34749649	     -1.91165265	      1.78126805	     27.74584877	     -4.15208482	     -4.82430527	    -70.74997610	      4.35303076	     -5.28958153	     -0.38510899	     -6.29936233	      3.46495468	      2.63318622
      0.74633333	     -2.89411033	     -1.83119973	      2.25952282	     -0.38371261	      0.91341676	      0.34448560	      7.91423371	      8.19629540	      1.22037279	    -18.45897721	     13.32150943	     -1.83746595	      1.81033787	     28.04214092	     -3.96391999	     -4.90958458	    -69.77037760	      4.54207991	     -5.09920716	     -0.27597175	     -6.46143729	      3.32803383	      2.90319011
      0.75050000	     -2.81160640	     -1.70718953	      2.08152930	     -0.37843499	      0.91432174	      0.34478788	      7.11613529	      8.08694472	      1.42481188	    -17.77811146	     13.21527816	     -1.75616397	      1.85163362	     28.35356090	     -3.77158624	     -5.00330031	    -68.73402564	      4.71734422	     -4.92386516	     -0.12913205	     -6.60283599	      3.16746691	      3.15415637
      0.75466667	     -2.70982465	     -1.56324771	      1.90387460	     -0.37313056	      0.91519880	      0.34505697	      6.31108873	      7.94476939	      1.58365738	    -17.13450710	     13.18181290	     -1.64680240	      1.88067275	     28.61143833	     -3.55636267	     -5.10666899	    -67.62782642	      4.86028173	     -4.78442471	     -0.03661664	     -6.74088009	      2.99991837	      3.33425217
      0.75883333	     -2.63109058	     -1.42018997	      1.71409879	     -0.36786289	      0.91597724	      0.34533449	      5.54670726	      7.79733777	      1.74606020	    -16.51041955	     13.08642979	     -1.50980584	      1.90028300	     28.87630650	     -3.34437425	     -5.21314130	    -66.46985484	      4.99269713	     -4.64934241	      0.02593423	     -6.86728585	      2.82297151	      3.49589875
      0.76300000	     -2.50736865	     -1.32577174	      1.54811348	     -0.36257861	      0.91672229	      0.34561613	      4.70555681	      7.70738000	      1.93350142	    -15.82486617	     13.04800040	     -1.44124001	      1.94511178	     29.08873634	     -3.18724115	     -5.28773766	    -65.29304193	      5.12820122	     -4.54376925	      0.13847143	     -7.04577485	      2.70808439	      3.76272382
      0.76716667	     -2.42918172	     -1.19324268	      1.35502460	     -0.35732737	      0.91735252	      0.34589050	      3.95768774	      7.56182653	      2.08078533	    -15.22410845	     12.97162327	     -1.31550661	      1.96898973	     29.31591684	     -2.99213368	     -5.39321732	    -64.03823826	      5.22326503	     -4.45256625	      0.19652718	     -7.16203952	      2.54218682	      3.91034776
      0.77133333	     -2.33182447	     -1.08593094	      1.17510642	     -0.35206888	      0.91792221	      0.34615787	      3.17890604	      7.44244535	      2.23256901	    -14.60024922	     12.92342823	     -1.19810809	      1.99579251	     29.51131974	     -2.82365403	     -5.47921946	    -62.75257473	      5.30775873	     -4.39469599	      0.25082120	     -7.30518185	      2.40323241	      4.09496773
      0.77550000	     -2.22641372	     -1.00411167	      1.00725743	     -0.34681312	      0.91841079	      0.34642428	      2.38784647	      7.35037683	      2.38803683	    -13.96634659	     12.90507437	     -1.10902916	      2.03641600	     29.68827535	     -2.68249919	     -5.54688626	    -61.43841595	      5.37690570	     -4.36225601	      0.31959329	     -7.45318231	      2.29823904	      4.31679513
      0.77966667	     -2.16240892	     -0.90258883	      0.81870850	     -0.34158915	      0.91877790	      0.34669013	      1.67567220	      7.22661436	      2.52267703	    -13.39516079	     12.83997697	     -0.98410288	      2.06493019	     29.88236308	     -2.52470965	     -5.63163463	    -60.06146755	      5.41265348	     -4.33361540	      0.36266444	     -7.55495055	      2.16606989	      4.47346609
